<svg width="15" height="20" viewBox="0 0 15 20" fill="none" xmlns="http://www.w3.org/2000/svg">
<g clip-path="url(#clip0_514_1176)">
<path d="M14 0H1C0.867392 0 0.740215 0.0526785 0.646447 0.146447C0.552679 0.240215 0.5 0.367392 0.5 0.5V9H6.5V6L11.5 10L6.5 14V11H0.5V19.5C0.5 19.6326 0.552679 19.7598 0.646447 19.8536C0.740215 19.9473 0.867392 20 1 20H14C14.1326 20 14.2598 19.9473 14.3536 19.8536C14.4473 19.7598 14.5 19.6326 14.5 19.5V0.5C14.5 0.367392 14.4473 0.240215 14.3536 0.146447C14.2598 0.0526785 14.1326 0 14 0Z" fill="#FBFBFF"/>
</g>
<defs>
<clipPath id="clip0_514_1176">
<rect x="0.5" width="14" height="20" rx="2" fill="white"/>
</clipPath>
</defs>
</svg>
