<svg aria-hidden="true" style="position: absolute; width: 0; height: 0; overflow: hidden;" version="1.1" xmlns="http://www.w3.org/2000/svg" xmlns:xlink="http://www.w3.org/1999/xlink">
    <defs>
        <symbol id="icon-profile" viewBox="0 0 32 32">
            <path fill="#fbfbff" style="fill: var(--color1, #fbfbff)" d="M4 0h24c2.209 0 4 1.791 4 4v24c0 2.209-1.791 4-4 4h-24c-2.209 0-4-1.791-4-4v-24c0-2.209 1.791-4 4-4z"></path>
            <path fill="#000" style="fill: var(--color2, #000)" opacity="0.02" d="M0 0h32v32h-32v-32z"></path>
            <path fill="#583dff" style="fill: var(--color3, #583dff)" d="M22.152 21.104c0.821-0.987 1.392-2.158 1.665-3.412s0.239-2.556-0.098-3.795c-0.337-1.239-0.968-2.378-1.839-3.322s-1.957-1.664-3.165-2.1c-1.208-0.436-2.504-0.574-3.778-0.404s-2.487 0.645-3.538 1.383c-1.051 0.738-1.909 1.719-2.5 2.858s-0.9 2.405-0.899 3.689c0 1.866 0.659 3.673 1.859 5.103l-0.011 0.010c0.040 0.048 0.086 0.089 0.127 0.137 0.051 0.059 0.107 0.114 0.16 0.171 0.16 0.174 0.325 0.341 0.498 0.497 0.053 0.048 0.107 0.093 0.16 0.138 0.183 0.158 0.371 0.307 0.566 0.447 0.025 0.017 0.048 0.039 0.073 0.057v-0.007c1.339 0.942 2.937 1.447 4.575 1.447s3.235-0.505 4.575-1.447v0.007c0.025-0.018 0.048-0.040 0.073-0.057 0.194-0.14 0.383-0.289 0.566-0.447 0.053-0.046 0.108-0.091 0.16-0.138 0.173-0.157 0.337-0.323 0.498-0.497 0.053-0.057 0.108-0.113 0.16-0.171 0.041-0.047 0.087-0.089 0.127-0.137l-0.013-0.009zM16.006 11.43c0.509 0 1.006 0.151 1.43 0.433s0.753 0.684 0.948 1.154c0.195 0.47 0.246 0.987 0.146 1.486s-0.344 0.957-0.704 1.317c-0.36 0.36-0.818 0.604-1.318 0.704s-1.017 0.048-1.487-0.146c-0.47-0.195-0.872-0.524-1.155-0.947s-0.434-0.92-0.434-1.429c0-0.682 0.271-1.336 0.754-1.818s1.137-0.753 1.82-0.753zM11.435 21.104c0.010-0.75 0.315-1.467 0.849-1.994s1.255-0.823 2.006-0.823h3.431c0.751 0 1.472 0.296 2.006 0.823s0.839 1.243 0.849 1.994c-1.254 1.129-2.882 1.754-4.571 1.754s-3.317-0.625-4.571-1.754z"></path>
        </symbol>
        <symbol id="icon-notifications" viewBox="0 0 32 32">
            <path fill="#fbfbff" style="fill: var(--color1, #fbfbff)" d="M4 0h24c2.209 0 4 1.791 4 4v24c0 2.209-1.791 4-4 4h-24c-2.209 0-4-1.791-4-4v-24c0-2.209 1.791-4 4-4z"></path>
            <path fill="#000" style="fill: var(--color2, #000)" opacity="0.02" d="M0 0h32v32h-32v-32z"></path>
            <path fill="#583dff" style="fill: var(--color3, #583dff)" d="M15.55 23.661c0.283-0.007 0.555-0.118 0.768-0.315s0.352-0.465 0.393-0.758h-2.367c0.042 0.301 0.188 0.576 0.41 0.774s0.505 0.304 0.796 0.299z"></path>
            <path fill="#583dff" style="fill: var(--color3, #583dff)" d="M22.233 20.767l-0.153-0.141c-0.434-0.404-0.814-0.868-1.129-1.379-0.345-0.705-0.551-1.474-0.608-2.264v-2.325c-0.002-0.282-0.026-0.564-0.072-0.842-0.762-0.164-1.447-0.598-1.938-1.229s-0.759-1.42-0.757-2.234v-0.296c-0.47-0.242-0.975-0.401-1.494-0.471v-0.593c0-0.167-0.063-0.326-0.176-0.444s-0.266-0.184-0.425-0.184c-0.159 0-0.312 0.066-0.425 0.184s-0.176 0.278-0.176 0.444v0.616c-1.163 0.172-2.227 0.777-2.996 1.705s-1.191 2.116-1.189 3.344v2.325c-0.056 0.789-0.263 1.559-0.608 2.264-0.31 0.509-0.684 0.973-1.112 1.379l-0.153 0.141v1.327h13.41v-1.327z"></path>
            <path fill="#583dff" style="fill: var(--color3, #583dff)" d="M20.95 12.706c1.243 0 2.25-1.054 2.25-2.353s-1.007-2.353-2.25-2.353-2.25 1.053-2.25 2.353c0 1.299 1.007 2.353 2.25 2.353z"></path>
        </symbol>
        <symbol id="icon-mdi_close-box" viewBox="0 0 32 32">
            <path fill="#fbfbff" style="fill: var(--color1, #fbfbff)" d="M28.444 0h-24.889c-0.943 0-1.847 0.375-2.514 1.041s-1.041 1.571-1.041 2.514v24.889c0 0.943 0.375 1.847 1.041 2.514s1.571 1.041 2.514 1.041h24.889c0.943 0 1.847-0.375 2.514-1.041s1.041-1.571 1.041-2.514v-24.889c0-0.943-0.375-1.847-1.041-2.514s-1.571-1.041-2.514-1.041zM23.192 24.097c-0.437 0.437-1.147 0.437-1.584 0l-4.816-4.816c-0.437-0.437-1.147-0.437-1.584 0l-4.816 4.816c-0.437 0.437-1.147 0.437-1.584 0l-0.905-0.905c-0.437-0.437-0.437-1.147 0-1.584l4.816-4.816c0.437-0.437 0.437-1.147 0-1.584l-4.816-4.816c-0.437-0.437-0.437-1.147 0-1.584l0.905-0.905c0.437-0.437 1.147-0.437 1.584 0l4.816 4.816c0.437 0.437 1.147 0.437 1.584 0l4.816-4.816c0.437-0.437 1.147-0.437 1.584 0l0.905 0.905c0.437 0.437 0.437 1.147 0 1.584l-4.816 4.816c-0.437 0.437-0.437 1.147 0 1.584l4.816 4.816c0.437 0.437 0.437 1.147 0 1.584l-0.905 0.905z"></path>
        </symbol>
        <symbol id="icon-google" viewBox="0 0 32 32">
            <path fill="#583dff" style="fill: var(--color3, #583dff)" d="M4.8 0h22.4c2.651 0 4.8 2.149 4.8 4.8v22.4c0 2.651-2.149 4.8-4.8 4.8h-22.4c-2.651 0-4.8-2.149-4.8-4.8v-22.4c0-2.651 2.149-4.8 4.8-4.8zM11.053 7.828c-1.546 0.934-2.796 2.271-3.611 3.862-0.664 1.296-1.042 2.761-1.042 4.31-0.001 1.261 0.253 2.509 0.745 3.674s1.214 2.223 2.123 3.115c0.91 0.892 1.99 1.599 3.179 2.081s2.463 0.73 3.749 0.73c2.645 0 4.863-0.859 6.483-2.326 1.853-1.67 2.921-4.132 2.921-7.056 0-0.681-0.063-1.335-0.178-1.963h-9.226v3.713h5.272c-0.109 0.587-0.339 1.147-0.675 1.645s-0.772 0.924-1.281 1.252c-0.878 0.576-1.999 0.917-3.317 0.917-2.552 0-4.711-1.689-5.481-3.958-0.196-0.576-0.308-1.19-0.308-1.824s0.112-1.248 0.308-1.824c0.769-2.268 2.929-3.958 5.481-3.958 1.438 0 2.729 0.485 3.745 1.436l2.808-2.753c-1.696-1.55-3.913-2.501-6.553-2.501-1.816-0.001-3.597 0.494-5.142 1.428z"></path>
        </symbol>
        <symbol id="icon-facebok" viewBox="0 0 32 32">
            <path fill="#583dff" style="fill: var(--color3, #583dff)" d="M4.8 0c-2.651 0-4.8 2.149-4.8 4.8v22.4c0 2.651 2.149 4.8 4.8 4.8h22.4c2.651 0 4.8-2.149 4.8-4.8v-22.4c0-2.651-2.149-4.8-4.8-4.8h-22.4zM17.106 25.6h-3.694v-8.094h-2.213l0.366-4.022h1.847v-2.031c0-1.34 0.486-2.625 1.352-3.573s2.040-1.48 3.265-1.48h2.77v4.042h-2.77c-0.245 0-0.48 0.106-0.653 0.296s-0.271 0.447-0.271 0.715v2.031h3.694l-0.366 4.022h-3.328v8.094z"></path>
        </symbol>
        <symbol id="icon-arrow_right" viewBox="0 0 32 32">
            <path fill="#583dff" style="fill: var(--color3, #583dff)" d="M4 0h24c2.209 0 4 1.791 4 4v24c0 2.209-1.791 4-4 4h-24c-2.209 0-4-1.791-4-4v-24c0-2.209 1.791-4 4-4z"></path>
            <path fill="#000" style="fill: var(--color2, #000)" opacity="0.05" d="M32 32h-32v-32h32v32z"></path>
            <path fill="none" stroke="#fbfbff" style="stroke: var(--color1, #fbfbff)" stroke-linejoin="miter" stroke-linecap="butt" stroke-miterlimit="4" stroke-width="3.4667" d="M12 8l9.333 8-9.333 8"></path>
        </symbol>
        <symbol id="icon-arrow_left" viewBox="0 0 32 32">
            <path fill="#583dff" style="fill: var(--color3, #583dff)" d="M28 32h-24c-2.209 0-4-1.791-4-4v-24c0-2.209 1.791-4 4-4h24c2.209 0 4 1.791 4 4v24c0 2.209-1.791 4-4 4z"></path>
            <path fill="#000" style="fill: var(--color2, #000)" opacity="0.05" d="M0 0h32v32h-32v-32z"></path>
            <path fill="none" stroke="#fbfbff" style="stroke: var(--color1, #fbfbff)" stroke-linejoin="miter" stroke-linecap="butt" stroke-miterlimit="4" stroke-width="3.4667" d="M20 24l-9.333-8 9.333-8"></path>
        </symbol>
        <symbol id="icon-Star" viewBox="0 0 32 32">
            <path fill="#ffa215" style="fill: var(--color4, #ffa215)" d="M14.082 2.256c0.635-1.955 3.401-1.955 4.036 0l2.124 6.538c0.284 0.874 1.099 1.466 2.018 1.466h6.874c2.055 0 2.91 2.63 1.247 3.838l-5.561 4.041c-0.744 0.54-1.055 1.498-0.771 2.372l2.124 6.538c0.635 1.955-1.602 3.58-3.265 2.372l-5.561-4.041c-0.744-0.54-1.751-0.54-2.494 0l-5.561 4.041c-1.663 1.208-3.9-0.418-3.265-2.372l2.124-6.538c0.284-0.874-0.027-1.832-0.771-2.372l-5.561-4.041c-1.663-1.208-0.808-3.838 1.247-3.838h6.874c0.919 0 1.734-0.592 2.018-1.466l2.124-6.538z"></path>
        </symbol>
        <symbol id="icon-search" viewBox="0 0 34 32">
            <path fill="#583dff" style="fill: var(--color3, #583dff)" d="M3.962 12.571c0 2.425 0.963 4.75 2.678 6.465s4.040 2.678 6.465 2.678 4.75-0.963 6.465-2.678c1.715-1.715 2.678-4.040 2.678-6.465s-0.963-4.75-2.678-6.465c-1.715-1.715-4.040-2.678-6.465-2.678s-4.75 0.963-6.465 2.678c-1.715 1.715-2.678 4.040-2.678 6.465zM18.074 7.694c0.631 1.094 0.479 2.363-0.342 2.837-0.819 0.473-1.997-0.029-2.627-1.122s-0.478-2.363 0.342-2.837c0.821-0.473 1.997 0.029 2.629 1.122h-0.001z"></path>
            <path fill="#583dff" style="fill: var(--color3, #583dff)" d="M0.533 12.571c0 6.943 5.629 12.571 12.571 12.571 2.623 0 5.058-0.804 7.074-2.177-0.161 0.706-0.14 1.442 0.061 2.138s0.575 1.33 1.088 1.842l3.637 3.637c0.807 0.79 1.892 1.229 3.021 1.223s2.209-0.457 3.008-1.255c0.798-0.798 1.249-1.879 1.255-3.008s-0.433-2.214-1.223-3.021l-3.636-3.636c-0.508-0.509-1.136-0.881-1.826-1.083s-1.42-0.227-2.122-0.073c1.459-2.101 2.24-4.599 2.236-7.158 0-6.943-5.629-12.571-12.572-12.571s-12.571 5.629-12.571 12.571zM23.391 12.571c0 1.351-0.266 2.688-0.783 3.936s-1.274 2.382-2.23 3.337c-0.955 0.955-2.089 1.713-3.337 2.23s-2.585 0.783-3.936 0.783-2.688-0.266-3.936-0.783c-1.248-0.517-2.382-1.275-3.337-2.23s-1.713-2.089-2.23-3.337c-0.517-1.248-0.783-2.586-0.783-3.936 0-2.728 1.084-5.344 3.013-7.273s4.545-3.013 7.273-3.013c2.728 0 5.344 1.084 7.273 3.013s3.013 4.545 3.013 7.273z"></path>
        </symbol>
    </defs>
</svg>