<svg width="20" height="20" viewBox="0 0 20 20" fill="none" xmlns="http://www.w3.org/2000/svg">
<g clip-path="url(#clip0_152_3253)">
<path d="M17.7778 0H2.22222C1.63285 0 1.06762 0.234126 0.650874 0.650874C0.234126 1.06762 0 1.63285 0 2.22222V17.7778C0 18.3671 0.234126 18.9324 0.650874 19.3491C1.06762 19.7659 1.63285 20 2.22222 20H17.7778C18.3671 20 18.9324 19.7659 19.3491 19.3491C19.7659 18.9324 20 18.3671 20 17.7778V2.22222C20 1.63285 19.7659 1.06762 19.3491 0.650874C18.9324 0.234126 18.3671 0 17.7778 0ZM14.495 15.0606C14.2216 15.3339 13.7784 15.3339 13.505 15.0606L10.495 12.0505C10.2216 11.7772 9.77839 11.7772 9.50503 12.0505L6.49497 15.0606C6.22161 15.3339 5.77839 15.3339 5.50502 15.0606L4.93942 14.495C4.66605 14.2216 4.66605 13.7784 4.93942 13.505L7.94947 10.495C8.22284 10.2216 8.22284 9.77839 7.94947 9.50503L4.93942 6.49497C4.66605 6.22161 4.66605 5.77839 4.93942 5.50502L5.50502 4.93942C5.77839 4.66605 6.22161 4.66605 6.49497 4.93942L9.50503 7.94947C9.77839 8.22284 10.2216 8.22284 10.495 7.94947L13.505 4.93942C13.7784 4.66605 14.2216 4.66605 14.495 4.93942L15.0606 5.50502C15.3339 5.77839 15.3339 6.22161 15.0606 6.49497L12.0505 9.50503C11.7772 9.77839 11.7772 10.2216 12.0505 10.495L15.0606 13.505C15.3339 13.7784 15.3339 14.2216 15.0606 14.495L14.495 15.0606Z" fill="#FBFBFF"/>
</g>
<defs>
<clipPath id="clip0_152_3253">
<rect width="20" height="20" fill="white"/>
</clipPath>
</defs>
</svg>
