<svg width="20" height="20" viewBox="0 0 20 20" fill="none" xmlns="http://www.w3.org/2000/svg">
<g clip-path="url(#clip0_145_1562)">
<path d="M2.14307 7.85717C2.14307 9.37269 2.74511 10.8261 3.81674 11.8978C4.88838 12.9694 6.34183 13.5715 7.85735 13.5715C9.37288 13.5715 10.8263 12.9694 11.898 11.8978C12.9696 10.8261 13.5716 9.37269 13.5716 7.85717C13.5716 6.34165 12.9696 4.8882 11.898 3.81656C10.8263 2.74492 9.37288 2.14288 7.85735 2.14288C6.34183 2.14288 4.88838 2.74492 3.81674 3.81656C2.74511 4.8882 2.14307 6.34165 2.14307 7.85717ZM10.9631 4.8086C11.3574 5.49217 11.2624 6.28574 10.7495 6.58145C10.2374 6.87717 9.50164 6.5636 9.10735 5.88003C8.71307 5.19646 8.80878 4.40288 9.32092 4.10717C9.83378 3.81145 10.5688 4.12503 10.9638 4.8086H10.9631Z" fill="#FBFBFF"/>
<path d="M0 7.85714C0 12.1964 3.51786 15.7143 7.85714 15.7143C9.49643 15.7143 11.0186 15.2121 12.2786 14.3536C12.178 14.7951 12.1911 15.255 12.3166 15.6901C12.4422 16.1252 12.6761 16.5213 12.9964 16.8414L15.2693 19.1143C15.7734 19.6078 16.4519 19.8825 17.1573 19.8787C17.8628 19.875 18.5382 19.5931 19.0371 19.0942C19.5359 18.5954 19.8178 17.9199 19.8216 17.2144C19.8253 16.509 19.5506 15.8305 19.0571 15.3264L16.7843 13.0536C16.4668 12.7357 16.0744 12.5029 15.6432 12.3765C15.212 12.2502 14.756 12.2344 14.3171 12.3307C15.2292 11.0174 15.7168 9.45609 15.7143 7.85714C15.7143 3.51786 12.1964 0 7.85714 0C3.51786 0 0 3.51786 0 7.85714ZM14.2857 7.85714C14.2857 8.70135 14.1194 9.5373 13.7964 10.3173C13.4733 11.0972 12.9998 11.8059 12.4028 12.4028C11.8059 12.9998 11.0972 13.4733 10.3173 13.7964C9.5373 14.1194 8.70135 14.2857 7.85714 14.2857C7.01293 14.2857 6.17699 14.1194 5.39704 13.7964C4.61708 13.4733 3.9084 12.9998 3.31146 12.4028C2.71451 11.8059 2.24098 11.0972 1.91792 10.3173C1.59485 9.5373 1.42857 8.70135 1.42857 7.85714C1.42857 6.15218 2.10587 4.51705 3.31146 3.31146C4.51705 2.10587 6.15218 1.42857 7.85714 1.42857C9.56211 1.42857 11.1972 2.10587 12.4028 3.31146C13.6084 4.51705 14.2857 6.15218 14.2857 7.85714Z" fill="#FBFBFF"/>
</g>
<defs>
<clipPath id="clip0_145_1562">
<rect width="20" height="20" fill="white"/>
</clipPath>
</defs>
</svg>
