<svg width="24" height="24" viewBox="0 0 24 24" fill="none" xmlns="http://www.w3.org/2000/svg">
<path fill-rule="evenodd" clip-rule="evenodd" d="M3.6 0C1.61178 0 0 1.61178 0 3.6V20.4C0 22.3882 1.61178 24 3.6 24H20.4C22.3882 24 24 22.3882 24 20.4V3.6C24 1.61178 22.3882 0 20.4 0H3.6ZM12.8297 19.2H10.0594V13.1293H8.4L8.67426 10.1128H10.0594V8.58947C10.0594 7.58444 10.4242 6.62058 11.0737 5.90991C11.7231 5.19925 12.6039 4.8 13.5223 4.8H15.6V7.83158H13.5223C13.3386 7.83158 13.1624 7.91143 13.0326 8.05356C12.9027 8.19569 12.8297 8.38847 12.8297 8.58947V10.1128H15.6L15.3257 13.1293H12.8297V19.2Z" fill="#583DFF"/>
</svg>
