<svg width="24" height="24" viewBox="0 0 24 24" fill="none" xmlns="http://www.w3.org/2000/svg">
<path fill-rule="evenodd" clip-rule="evenodd" d="M3.6 0C1.61178 0 0 1.61178 0 3.6V20.4C0 22.3882 1.61178 24 3.6 24H20.4C22.3882 24 24 22.3882 24 20.4V3.6C24 1.61178 22.3882 0 20.4 0H3.6ZM8.29011 5.87098C7.13072 6.57157 6.19299 7.57434 5.58172 8.7672C5.08359 9.7392 4.8 10.8379 4.8 12C4.79961 12.9456 4.98939 13.8821 5.35847 14.7558C5.72755 15.6295 6.2687 16.4234 6.95101 17.092C7.63331 17.7607 8.44338 18.291 9.33493 18.6527C10.2265 19.0144 11.182 19.2004 12.1469 19.2C14.1306 19.2 15.794 18.5556 17.0091 17.4554C18.3992 16.2026 19.2 14.3566 19.2 12.1634C19.2 11.653 19.153 11.1619 19.0663 10.691H12.1469V13.476H16.1011C16.0192 13.9165 15.8471 14.3362 15.595 14.7097C15.343 15.0832 15.0162 15.4027 14.6346 15.649C13.9763 16.081 13.1351 16.3366 12.1469 16.3366C10.2331 16.3366 8.6138 15.0701 8.03633 13.368C7.88939 12.936 7.80563 12.4752 7.80563 12C7.80563 11.5248 7.88939 11.064 8.03633 10.632C8.61306 8.93064 10.2331 7.66344 12.1469 7.66344C13.2255 7.66344 14.1938 8.02704 14.9557 8.74056L17.062 6.6756C15.7903 5.5128 14.1269 4.8 12.1469 4.8C10.7849 4.79958 9.4495 5.17039 8.29011 5.87098Z" fill="#583DFF"/>
</svg>
