<svg width="21" height="20" viewBox="0 0 21 20" fill="none" xmlns="http://www.w3.org/2000/svg">
<g clip-path="url(#clip0_514_317)">
<path d="M2.4762 7.85714C2.4762 9.37266 3.07824 10.8261 4.14987 11.8977C5.22151 12.9694 6.67496 13.5714 8.19048 13.5714C9.70601 13.5714 11.1595 12.9694 12.2311 11.8977C13.3027 10.8261 13.9048 9.37266 13.9048 7.85714C13.9048 6.34162 13.3027 4.88816 12.2311 3.81653C11.1595 2.74489 9.70601 2.14285 8.19048 2.14285C6.67496 2.14285 5.22151 2.74489 4.14987 3.81653C3.07824 4.88816 2.4762 6.34162 2.4762 7.85714ZM11.2962 4.80857C11.6905 5.49214 11.5955 6.28571 11.0826 6.58142C10.5705 6.87714 9.83477 6.56357 9.44048 5.88C9.0462 5.19642 9.14191 4.40285 9.65405 4.10714C10.1669 3.81142 10.9019 4.125 11.2969 4.80857H11.2962Z" fill="#583DFF"/>
<path d="M0.333374 7.85714C0.333374 12.1964 3.85123 15.7143 8.19052 15.7143C9.8298 15.7143 11.3519 15.2121 12.6119 14.3536C12.5114 14.7951 12.5244 15.255 12.65 15.6901C12.7755 16.1252 13.0094 16.5213 13.3298 16.8414L15.6027 19.1143C16.1068 19.6078 16.7852 19.8825 17.4907 19.8787C18.1961 19.875 18.8716 19.5931 19.3704 19.0942C19.8693 18.5954 20.1512 17.9199 20.1549 17.2144C20.1587 16.509 19.884 15.8305 19.3905 15.3264L17.1177 13.0536C16.8002 12.7357 16.4077 12.5029 15.9766 12.3765C15.5454 12.2502 15.0894 12.2344 14.6505 12.3307C15.5626 11.0174 16.0502 9.45609 16.0477 7.85714C16.0477 3.51786 12.5298 0 8.19052 0C3.85123 0 0.333374 3.51786 0.333374 7.85714ZM14.6191 7.85714C14.6191 8.70135 14.4528 9.5373 14.1297 10.3173C13.8067 11.0972 13.3332 11.8059 12.7362 12.4028C12.1393 12.9998 11.4306 13.4733 10.6506 13.7964C9.87068 14.1194 9.03473 14.2857 8.19052 14.2857C7.3463 14.2857 6.51036 14.1194 5.73041 13.7964C4.95046 13.4733 4.24178 12.9998 3.64483 12.4028C3.04788 11.8059 2.57436 11.0972 2.25129 10.3173C1.92823 9.5373 1.76195 8.70135 1.76195 7.85714C1.76195 6.15218 2.43924 4.51705 3.64483 3.31146C4.85042 2.10587 6.48555 1.42857 8.19052 1.42857C9.89548 1.42857 11.5306 2.10587 12.7362 3.31146C13.9418 4.51705 14.6191 6.15218 14.6191 7.85714Z" fill="#583DFF"/>
</g>
<defs>
<clipPath id="clip0_514_317">
<rect width="20" height="20" fill="white" transform="translate(0.333374)"/>
</clipPath>
</defs>
</svg>
