<svg width="21" height="20" viewBox="0 0 21 20" fill="none" xmlns="http://www.w3.org/2000/svg">
<path d="M9.24117 0.980655C9.65799 -0.302182 11.4729 -0.302184 11.8897 0.980654L13.2838 5.27116C13.4702 5.84486 14.0048 6.23328 14.608 6.23328H19.1193C20.4682 6.23328 21.029 7.95933 19.9377 8.75217L16.288 11.4038C15.8 11.7584 15.5958 12.3869 15.7822 12.9606L17.1763 17.2511C17.5931 18.5339 16.1248 19.6007 15.0336 18.8079L11.3839 16.1562C10.8958 15.8016 10.235 15.8016 9.74699 16.1562L6.09728 18.8079C5.00603 19.6007 3.53777 18.5339 3.95458 17.2511L5.34865 12.9606C5.53506 12.3869 5.33085 11.7584 4.84283 11.4038L1.19311 8.75217C0.101868 7.95933 0.662693 6.23328 2.01155 6.23328H6.52285C7.12607 6.23328 7.6607 5.84486 7.8471 5.27116L9.24117 0.980655Z" fill="#FFA215"/>
</svg>
